<svg xmlns="http://www.w3.org/2000/svg" viewBox="0 0 736 655" width="736" height="655"><defs><clipPath id="a"><path d="M540.5 208.222h136v87h-136z"/></clipPath><clipPath id="b"><path d="M373 208.194h136v87H373z"/></clipPath><clipPath id="c"><path d="M210 302.5h143v56H210z"/></clipPath><clipPath id="d"><path d="M210 226.5h143v56H210z"/></clipPath><clipPath id="e"><path d="M210 152.5h143v54H210z"/></clipPath><clipPath id="f"><path d="M40 229h130v54H40z"/></clipPath><clipPath id="g"><path d="M46 95.5h118v93H46z"/></clipPath><marker orient="auto" overflow="visible" id="h" stroke-miterlimit="10" viewBox="-1 -4 8 8" markerWidth="8" markerHeight="8" color="#616161"><path fill="currentColor" stroke="currentColor" d="M0-3h6v6H0z"/></marker><marker orient="auto" overflow="visible" id="i" stroke-miterlimit="10" viewBox="-7 -4 8 8" markerWidth="8" markerHeight="8" color="#616161"><path fill="currentColor" stroke="currentColor" d="M-6-3h6v6h-6z"/></marker><marker orient="auto" overflow="visible" id="j" stroke-miterlimit="10" viewBox="-1 -5 10 10" markerWidth="10" markerHeight="10" color="#616161"><path d="M8 0H0m4-4l4 4-4 4" fill="none" stroke="currentColor"/></marker><marker orient="auto" overflow="visible" id="k" stroke-miterlimit="10" viewBox="-9 -5 10 10" markerWidth="10" markerHeight="10" color="#616161"><path d="M-8 0h8m-4 4l-4-4 4-4" fill="none" stroke="currentColor"/></marker></defs><g fill="none"><title>ComputeRegions_BestPractices_Diagram01</title><path fill="#fff" d="M0 0h736v655H0z"/><title>Layer 1</title><title>GCP Zone</title><path fill="#eaedef" d="M21.4 39.1H716v403.8H21.4z"/><title>Page-1</title><title>Shape</title><path d="M50.208 70.13l-2.148 3.733h-5.625a1.4 1.4 0 0 1-1.215-.704l-4.55-7.933a1.401 1.401 0 0 1 0-1.392l1.732-3.018 2.137 3.713 3.222 5.6z" fill="#fbbc05"/><title>Shape</title><path d="M57.299 65.226l-4.55 7.934a1.4 1.4 0 0 1-1.214.704h-3.476l2.147-3.734 3.225-5.6-3.225-5.6h4.28l2.812 4.904c.249.43.25.961.001 1.392z" fill="#ea4335"/><title>Shape</title><path d="M54.487 58.93H43.76l-3.222 5.6-2.137-3.715L41.22 55.9a1.4 1.4 0 0 1 1.215-.704h9.1a1.4 1.4 0 0 1 1.215.704z" fill="#4285f4"/><title>Shape</title><title>Oval</title><circle cx="46.985" cy="64.529" r="2.801" fill="#fff"/><title>GCP logo</title><title>Fill-3</title><path d="M116.083 64.834c0-3.23 2.441-5.671 5.64-5.671 1.639 0 3.019.652 3.99 1.774l-.971.94c-.758-.94-1.775-1.38-3.018-1.38-2.29 0-4.216 1.668-4.216 4.337 0 2.67 1.926 4.337 4.216 4.337 1.365 0 2.517-.636 3.336-1.577l.97.97c-.955 1.138-2.486 1.942-4.306 1.942-3.2 0-5.641-2.442-5.641-5.672" fill="#757575"/><title>Fill-5</title><path fill="#757575" d="M127.122 59.406h1.395v10.858h-1.395z"/><title>Fill-7</title><path d="M135.81 66.548c0-1.698-1.182-2.684-2.426-2.684-1.243 0-2.426.986-2.426 2.684 0 1.699 1.183 2.684 2.426 2.684 1.244 0 2.427-.985 2.427-2.684m1.395 0c0 2.26-1.593 3.958-3.822 3.958s-3.821-1.699-3.821-3.958c0-2.26 1.592-3.958 3.821-3.958 2.23 0 3.822 1.699 3.822 3.958" fill="#757575"/><title>Fill-8</title><path d="M143.514 70.263v-1.03h-.06c-.41.681-1.336 1.273-2.351 1.273-1.911 0-2.836-1.29-2.836-3.124v-4.55h1.395v4.323c0 1.547.773 2.077 1.834 2.077 1.214 0 1.957-1.168 1.957-2.305v-4.094h1.395v7.43z" fill="#757575"/><title>Fill-9</title><path d="M152.096 66.548c0-1.698-1.122-2.684-2.366-2.684-1.243 0-2.365 1.016-2.365 2.684 0 1.668 1.122 2.684 2.365 2.684 1.244 0 2.366-.985 2.366-2.684m-6.126 0c0-2.275 1.652-3.958 3.533-3.958 1.183 0 2.108.591 2.532 1.274h.061l-.061-1.03v-3.428h1.395v10.857h-1.334v-1.031h-.061c-.424.682-1.35 1.274-2.532 1.274-1.88 0-3.533-1.683-3.533-3.958" fill="#757575"/><title>Fill-10</title><path d="M160.966 64.531c1.244 0 1.941-1.03 1.941-1.895 0-.864-.697-1.896-1.94-1.896h-2.336v3.791zm-3.73 5.732V59.406h3.7c1.804 0 3.396 1.334 3.396 3.23 0 1.895-1.592 3.23-3.396 3.23h-2.305v4.397z" fill="#757575"/><title>Fill-11</title><path fill="#757575" d="M165.318 59.406h1.395v10.858h-1.395z"/><title>Fill-12</title><path d="M173.188 67.064s-.592-.485-1.775-.485c-1.47 0-2.047.788-2.047 1.47 0 .789.82 1.183 1.547 1.183 1.107 0 2.275-.956 2.275-2.168m-5.278.955c0-1.683 1.517-2.593 3.261-2.593 1 0 1.728.288 2.017.455v-.213c0-1.122-.895-1.804-1.942-1.804-.772 0-1.516.379-1.774 1.076l-1.273-.546c.257-.682 1.152-1.804 3.017-1.804 1.82 0 3.306 1.092 3.306 3.185v4.488h-1.334v-1.03h-.061c-.41.62-1.168 1.273-2.441 1.273-1.517 0-2.776-.94-2.776-2.487" fill="#757575"/><title>Fill-13</title><path d="M176.539 68.004v-3.898h-1.304v-1.273h1.304v-2.275h1.395v2.275h1.82v1.273h-1.82v3.792c0 .834.349 1.213 1 1.213.258 0 .44-.03.637-.122l.486 1.198c-.319.137-.652.197-1.122.197-1.563 0-2.396-.864-2.396-2.38" fill="#757575"/><title>Fill-14</title><path d="M185.606 59.542l-.485 1.198c-.182-.091-.379-.121-.637-.121-.698 0-1.243.409-1.243 1.274v.94h1.94v1.273h-1.94v6.157h-1.395v-6.157h-1.396v-1.273h1.396v-.986c0-1.516 1.076-2.502 2.638-2.502.47 0 .804.061 1.122.197" fill="#757575"/><title>Fill-15</title><path d="M191.808 66.548c0-1.698-1.183-2.684-2.426-2.684-1.244 0-2.426.986-2.426 2.684 0 1.699 1.182 2.684 2.426 2.684 1.243 0 2.426-.985 2.426-2.684m1.395 0c0 2.26-1.592 3.958-3.821 3.958-2.23 0-3.822-1.699-3.822-3.958 0-2.26 1.593-3.958 3.822-3.958s3.821 1.699 3.821 3.958" fill="#757575"/><title>Fill-16</title><path d="M194.325 70.263v-7.43h1.334v1.213h.061c.303-.849 1.38-1.395 2.154-1.395.454 0 .758.06 1.046.182l-.53 1.304c-.198-.076-.44-.106-.744-.106-.956 0-1.926.803-1.926 2.168v4.064z" fill="#757575"/><title>Fill-17</title><path d="M199.678 62.833h1.334v1.03h.06c.426-.712 1.411-1.273 2.29-1.273 1.198 0 1.972.546 2.35 1.425a3.023 3.023 0 0 1 2.594-1.425c1.82 0 2.654 1.29 2.654 3.124v4.55h-1.395v-4.337c0-1.547-.592-2.063-1.653-2.063-1.138 0-1.896 1.152-1.896 2.29v4.11h-1.395v-4.337c0-1.547-.591-2.063-1.653-2.063-1.137 0-1.896 1.152-1.896 2.29v4.11h-1.394z" fill="#757575"/><title>Fill-18</title><path d="M63.495 64.289c0-3.428 2.881-6.218 6.309-6.218 1.895 0 3.245.743 4.26 1.714l-1.197 1.198c-.728-.682-1.714-1.213-3.063-1.213-2.503 0-4.459 2.016-4.459 4.519 0 2.502 1.956 4.519 4.459 4.519 1.622 0 2.547-.652 3.138-1.244.486-.485.805-1.183.926-2.138h-4.064v-1.698h5.716c.061.303.091.667.091 1.06 0 1.275-.348 2.852-1.47 3.974-1.092 1.137-2.487 1.744-4.337 1.744-3.428 0-6.309-2.79-6.309-6.217" fill="#757575"/><title>Fill-19</title><path d="M80.232 68.929c-1.214 0-2.26-1.001-2.26-2.427 0-1.44 1.046-2.426 2.26-2.426 1.213 0 2.259.986 2.259 2.426 0 1.426-1.046 2.427-2.26 2.427m0-6.43c-2.214 0-4.018 1.683-4.018 4.003 0 2.305 1.804 4.004 4.019 4.004 2.213 0 4.018-1.699 4.018-4.004 0-2.32-1.805-4.003-4.018-4.003" fill="#757575"/><title>Fill-20</title><path d="M88.998 68.929c-1.213 0-2.26-1.001-2.26-2.427 0-1.44 1.047-2.426 2.26-2.426 1.213 0 2.26.986 2.26 2.426 0 1.426-1.047 2.427-2.26 2.427m0-6.43c-2.214 0-4.019 1.683-4.019 4.003 0 2.305 1.805 4.004 4.019 4.004 2.214 0 4.019-1.699 4.019-4.004 0-2.32-1.805-4.003-4.019-4.003" fill="#757575"/><title>Fill-21</title><path d="M97.741 68.929c-1.212 0-2.229-1.016-2.229-2.411 0-1.41 1.017-2.442 2.23-2.442 1.197 0 2.137 1.031 2.137 2.442 0 1.395-.94 2.41-2.138 2.41zm2.017-6.187v.652h-.06c-.395-.47-1.153-.895-2.108-.895-2.002 0-3.837 1.759-3.837 4.019 0 2.244 1.835 3.988 3.837 3.988.955 0 1.713-.425 2.107-.91h.061v.576c0 1.532-.819 2.35-2.138 2.35-1.077 0-1.744-.773-2.017-1.425l-1.532.637c.44 1.062 1.608 2.366 3.549 2.366 2.063 0 3.806-1.213 3.806-4.17v-7.188z" fill="#757575"/><title>Fill-22</title><path fill="#757575" d="M102.64 58.496h1.759v11.767h-1.759z"/><title>Fill-23</title><path d="M109.084 64.046c.698 0 1.29.349 1.486.85l-3.578 1.485c-.046-1.547 1.197-2.335 2.092-2.335m.137 4.883c-.895 0-1.532-.41-1.941-1.213l5.353-2.214-.182-.455c-.334-.895-1.35-2.548-3.427-2.548-2.063 0-3.776 1.623-3.776 4.003 0 2.245 1.698 4.004 3.973 4.004 1.835 0 2.896-1.122 3.336-1.774l-1.365-.91c-.455.667-1.077 1.107-1.971 1.107" fill="#757575"/><title>zone external - blue</title><path fill="#e1f6fe" d="M318.2 94.6H696v292.8H318.2z"/><path stroke="#fff" stroke-linecap="round" stroke-linejoin="round" stroke-width="2" d="M318.2 94.6H696v292.8H318.2z"/><text transform="translate(328.2 109.6)" fill="#757575"><tspan font-family="Roboto" font-size="10" font-weight="400" x="0" y="9">VPC</tspan></text><title>path solid</title><path stroke="#616161" stroke-linecap="round" stroke-linejoin="round" d="M170 256h40"/><title>Stacked Cards</title><title>Stroke-21</title><path stroke="#fff" stroke-linejoin="round" stroke-width="1.732" d="M548.154 299.111h127.892"/><title>Stroke-22</title><path stroke="#fff" stroke-linejoin="round" stroke-width="1.601" d="M552.992 303.778h118.216"/><title>Combo Card 2</title><path fill="#fff" d="M540.5 208.222h136v87h-136z"/><path stroke="#dfdfdf" stroke-linecap="round" stroke-linejoin="round" stroke-width="2" clip-path="url(#a)" d="M540.5 208.222h136v87h-136z"/><path fill="#dfdfdf" d="M556.5 256.222h104v1h-104z"/><text transform="translate(584.5 269.222)" fill="#757575"><tspan font-family="Roboto" font-size="10" font-weight="400" x="0" y="9">Cloud SQL</tspan></text><text transform="translate(556.5 227.222)" fill="#212121"><tspan font-family="Roboto" font-size="12" font-weight="400" x="28.946" y="11">Backend</tspan></text><title>Cloud SQL</title><title>Fill-1</title><path d="M576.262 274.303l-4.11-7.147c-.33-.57-.927-.918-1.542-.918h-8.22c-.658 0-1.234.386-1.541.918l-4.11 7.132a1.793 1.793 0 0 0 0 1.787l4.11 7.18c.329.57.926.951 1.54.951h8.22c.66 0 1.235-.415 1.542-.947l4.11-7.147c.33-.57.307-1.276 0-1.809" fill="#4285f4"/><title>Fill-4</title><path d="M569.619 272.39l-3.015-1.035-3.196 2.415 1.998 1.999-2.005.195 1.872 1.872-1.895.237 6.133 6.133h1.099c.659 0 1.233-.415 1.541-.947l3.044-5.293z" fill="#000" fill-opacity=".07"/><title>Fill-7</title><path d="M568.367 273.052l-.002-.001-1.865 1.077-1.865-1.077h-.001l1.866-1.077 1.865 1.077h.002zm-1.867-2.482l-3.125 1.805v1.395l3.125 1.804 3.125-1.804v-1.395z" fill="#fff"/><title>Fill-9</title><path d="M563.375 274.558v1.395l3.125 1.805 3.125-1.805v-1.395l-3.125 1.804z" fill="#fff"/><g><title>Fill-11</title><path d="M563.375 276.674v1.395l3.125 1.804 3.125-1.804v-1.395l-3.125 1.804z" fill="#fff"/></g><g><title>Stacked Cards</title><title>Stroke-21</title><path stroke="#fff" stroke-linejoin="round" stroke-width="1.732" d="M377.054 299.14h127.892"/><title>Stroke-22</title><path stroke="#fff" stroke-linejoin="round" stroke-width="1.601" d="M381.892 303.806h118.216"/><title>Combo Card 2</title><path fill="#fff" d="M373 208.194h136v87H373z"/><path stroke="#dfdfdf" stroke-linecap="round" stroke-linejoin="round" stroke-width="2" clip-path="url(#b)" d="M373 208.194h136v87H373z"/><path fill="#dfdfdf" d="M389 256.194h104v1H389z"/><text transform="translate(417 269.194)" fill="#757575"><tspan font-family="Roboto" font-size="10" font-weight="400" x="0" y="9">Compute Engine</tspan></text><text transform="translate(389 227.194)" fill="#212121"><tspan font-family="Roboto" font-size="12" font-weight="400" x="28.088" y="11">Frontend</tspan></text><title>Compute Engine</title><title>Fill-1</title><path d="M408.796 274.273l-4.117-7.16c-.33-.57-.929-.92-1.544-.92H394.9c-.66 0-1.236.388-1.544.92l-4.117 7.146a1.796 1.796 0 0 0 0 1.79l4.117 7.192c.33.572.928.953 1.544.953h8.234c.66 0 1.236-.416 1.544-.949l4.118-7.16a1.836 1.836 0 0 0 0-1.812" fill="#4285f4"/><title>Fill-4</title><path d="M407.614 278.14l-6.775-6.776-.486 1.052-1.057-1.057-.489 1.047-1.044-1.045-.257 1.266-.93.16-.192.827-1.203.287 1.078 1.078-1.066.474 1.066 1.066-1.073.458 7.216 7.217h.732c.66 0 1.236-.416 1.545-.949z" fill="#000" fill-opacity=".07"/><title>Fill-7</title><path d="M399.93 274.113h-1.786a.19.19 0 0 0-.19.19v1.786c0 .104.085.19.19.19h1.786a.19.19 0 0 0 .19-.19v-1.786a.19.19 0 0 0-.19-.19" fill="#fff"/><g><title>Fill-9</title><path d="M401.247 277.406h-4.42v-4.42h4.42zm1.51-3.437a.17.17 0 0 0 .17-.17v-.278a.171.171 0 0 0-.17-.17h-.869v-.813a.191.191 0 0 0-.19-.19h-.815v-.872a.171.171 0 0 0-.17-.17h-.279a.171.171 0 0 0-.17.17v.872h-.917v-.872a.171.171 0 0 0-.17-.17h-.279a.171.171 0 0 0-.17.17v.872h-.918v-.872a.171.171 0 0 0-.17-.17h-.278a.171.171 0 0 0-.17.17v.872h-.816a.19.19 0 0 0-.19.19v.812h-.868a.171.171 0 0 0-.17.17v.279c0 .094.076.17.17.17h.868v.918h-.868a.171.171 0 0 0-.17.17v.278c0 .094.076.17.17.17h.868v.918h-.868a.171.171 0 0 0-.17.17v.278c0 .094.076.17.17.17h.868v.813c0 .105.086.19.19.19h.816v.871c0 .094.076.17.17.17h.278a.17.17 0 0 0 .17-.17v-.871h.917v.871c0 .094.077.17.171.17h.278a.17.17 0 0 0 .17-.17v-.871h.918v.871c0 .094.076.17.17.17h.278a.17.17 0 0 0 .17-.17l.001-.871h.815a.19.19 0 0 0 .19-.19v-.813h.869a.17.17 0 0 0 .17-.17v-.278a.17.17 0 0 0-.17-.17h-.869v-.918h.869a.17.17 0 0 0 .17-.17v-.278a.171.171 0 0 0-.17-.17h-.869v-.918z" fill="#fff"/></g></g><g><title>Cloud CDN</title><path fill="#fff" d="M210 302.5h143v56H210z"/><path stroke="#dfdfdf" stroke-linecap="round" stroke-linejoin="round" stroke-width="2" clip-path="url(#c)" d="M210 302.5h143v56H210z"/><text transform="translate(261 323.5)" fill="#212121"><tspan font-family="Roboto" font-size="12" font-weight="400" x="0" y="11">Cloud CDN</tspan></text><title>Cloud CDN</title><title>Fill-1</title><path d="M253.666 329.214l-5.754-10.006c-.461-.8-1.297-1.286-2.158-1.286h-11.508c-.922 0-1.727.54-2.158 1.285l-5.754 9.986a2.51 2.51 0 0 0 0 2.502l5.754 10.052c.46.798 1.297 1.331 2.158 1.331h11.508c.922 0 1.727-.581 2.158-1.326l5.754-10.006a2.566 2.566 0 0 0 0-2.532" fill="#4285f4"/><title>Fill-4</title><path d="M242.374 325.446l-2.538-.907-2.242 2.743 1.526 1.527-.83.819-1.532-1.532-2.774 2.24.963 2.549 10.194 10.193h.613c.922 0 1.727-.581 2.158-1.326l3.931-6.837z" fill="#000" fill-opacity=".07"/><title>Fill-7</title><path d="M240 323.063l-2.406 2.406v1.818L240 324.88l2.406 2.406v-1.818z" fill="#fff"/><title>Fill-9</title><path d="M240 337.937l-2.406-2.406v-1.818L240 336.12l2.406-2.406v1.818z" fill="#fff"/><title>Fill-11</title><path d="M232.563 330.5l2.406 2.406h1.818l-2.406-2.406 2.406-2.406h-1.818z" fill="#fff"/><title>Fill-13</title><path d="M247.438 330.5l-2.407 2.406h-1.818l2.407-2.406-2.407-2.406h1.818z" fill="#fff"/><g><title>Fill-15</title><path d="M237.594 332.688v-4.375a.22.22 0 0 1 .219-.22h4.375a.22.22 0 0 1 .218.22v4.375c0 .12-.098.218-.218.218h-4.375a.219.219 0 0 1-.22-.219" fill="#fff"/></g></g><g><title>Cloud Load Balancing</title><path fill="#fff" d="M210 226.5h143v56H210z"/><path stroke="#dfdfdf" stroke-linecap="round" stroke-linejoin="round" stroke-width="2" clip-path="url(#d)" d="M210 226.5h143v56H210z"/><text transform="translate(261 240.5)" fill="#212121"><tspan font-family="Roboto" font-size="12" font-weight="400" x="0" y="11">Cloud Load</tspan> <tspan font-family="Roboto" font-size="12" font-weight="400" x="0" y="25">Balancing</tspan></text><title>Cloud Load Balancing</title><title>Fill-1</title><path d="M253.666 253.214l-5.754-10.006c-.461-.8-1.297-1.286-2.158-1.286h-11.508c-.922 0-1.727.54-2.158 1.285l-5.754 9.986a2.51 2.51 0 0 0 0 2.502l5.754 10.052c.46.798 1.297 1.331 2.158 1.331h11.508c.922 0 1.727-.581 2.158-1.326l5.754-10.006a2.566 2.566 0 0 0 0-2.532" fill="#4285f4"/><title>Fill-4</title><path d="M243.42 249.79l-5.516 1.72-1.276.73 1.84 1.84-2.515.147.055 2.369-1.397 1.77 8.711 8.712h2.432c.922 0 1.727-.581 2.158-1.326l4.188-7.283z" fill="#000" fill-opacity=".07"/><title>Fill-7</title><path fill="#fff" d="M239.563 252.094h.875v4.758h-.875z"/><title>Fill-9</title><path d="M235.829 254.281h.671v2.844h-.875v-2.64c0-.113.091-.204.204-.204" fill="#fff"/><title>Fill-10</title><path d="M243.5 254.281h.671c.113 0 .204.091.204.204v2.64h-.875z" fill="#fff"/><title>Fill-11</title><path d="M235.843 253.844h8.315c.12 0 .217.097.217.217v.658h-8.75v-.658c0-.12.097-.217.218-.217z" fill="#fff"/><title>Fill-12</title><path d="M236.712 249.688h6.576c.117 0 .212.094.212.211v2.202a.212.212 0 0 1-.212.212h-6.576a.212.212 0 0 1-.212-.212v-2.202c0-.117.095-.211.212-.211" fill="#fff"/><title>Fill-13</title><path d="M234.745 256.25h2.417c.117 0 .213.096.213.214v1.76a.214.214 0 0 1-.213.214h-2.417a.214.214 0 0 1-.214-.214v-1.76c0-.118.096-.214.214-.214" fill="#fff"/><g><title>Fill-14</title><path d="M242.839 256.25h2.416c.118 0 .214.096.214.214v1.76a.214.214 0 0 1-.214.214h-2.416a.214.214 0 0 1-.214-.214v-1.76c0-.118.096-.214.214-.214" fill="#fff"/></g><g><title>Fill-15</title><path d="M238.69 256.25h2.62c.122 0 .221.1.221.222v1.744a.221.221 0 0 1-.221.221h-2.62a.222.222 0 0 1-.221-.221v-1.744c0-.123.1-.222.221-.222" fill="#fff"/></g></g><g><title>Google Network edge cache</title><path fill="#fff" d="M210 152.5h143v54H210z"/><path stroke="#dfdfdf" stroke-linecap="round" stroke-linejoin="round" stroke-width="2" clip-path="url(#e)" d="M210 152.5h143v54H210z"/><text transform="translate(251 165.5)" fill="#212121"><tspan font-family="Roboto" font-size="12" font-weight="400" x="0" y="11">Google edge </tspan> <tspan font-family="Roboto" font-size="12" font-weight="400" x="0" y="25">POP</tspan></text><g fill="#616161"><path d="M233.2 177.7h3.6v3.6h-3.6z"/><path d="M242.2 170.5h-14.4c-.99 0-1.8.81-1.8 1.8v14.4c0 .99.81 1.8 1.8 1.8h14.4c.99 0 1.8-.81 1.8-1.8v-14.4c0-.99-.81-1.8-1.8-1.8zm-8.1 1.8h1.8v1.8h-1.8zm4.5 3.6v7.2h-7.2v-7.2zm-10.8-3.6h4.5v1.8h-.9c-.99 0-1.8.81-1.8 1.8v.9h-1.8zm0 6.3h1.8v1.8h-1.8zm4.5 8.1h-4.5v-4.5h1.8v.9c0 .99.81 1.8 1.8 1.8h.9zm3.6 0h-1.8v-1.8h1.8zm6.3 0h-4.5v-1.8h.9c.99 0 1.8-.81 1.8-1.8v-.9h1.8zm0-6.3h-1.8v-1.8h1.8zm0-3.6h-1.8v-.9c0-.99-.81-1.8-1.8-1.8h-.9v-1.8h4.5z"/></g></g><g><title>VPN gateway</title><path fill="#fff" d="M40 229h130v54H40z"/><path stroke="#dfdfdf" stroke-linecap="round" stroke-linejoin="round" stroke-width="2" clip-path="url(#f)" d="M40 229h130v54H40z"/><text transform="translate(81 249)" fill="#212121"><tspan font-family="Roboto" font-size="12" font-weight="400" x="0" y="11">ISP gateway</tspan></text><path d="M72 252H58c-1.1 0-2 .9-2 2v4c0 1.1.9 2 2 2h14c1.1 0 2-.9 2-2v-4c0-1.1-.9-2-2-2zm-11 5h-2v-2h2zm3.5 0h-2v-2h2zm3.5 0h-2v-2h2z" fill="#616161"/></g><g><title>laptop</title><path fill="#fff" d="M46 95.5h118v93H46z"/><path stroke="#dfdfdf" stroke-linecap="round" stroke-linejoin="round" stroke-width="2" clip-path="url(#g)" d="M46 95.5h118v93H46z"/><text transform="translate(50 151.5)" fill="#212121"><tspan font-family="Roboto" font-size="12" font-weight="400" x="36.394" y="11">Laptop</tspan></text><path d="M111 133c.825 0 1.5-.675 1.5-1.5V124c0-.825-.675-1.5-1.5-1.5H99c-.825 0-1.5.675-1.5 1.5v7.5c0 .825.675 1.5 1.5 1.5h-3v1.5h18V133zm-12-9h12v7.5H99z" fill="#616161"/></g><g><title>path solid</title><path stroke="#616161" stroke-linecap="round" stroke-linejoin="round" d="M105 188.5V229"/></g><g><text transform="translate(322.253 469)" fill="#757575"><tspan font-family="Roboto" font-size="10" font-weight="400" x="4.009" y="9">Latency to Compute Engine </tspan> <tspan font-family="Roboto" font-size="10" font-weight="400" x="49.644" y="21">region</tspan></text></g><g><title>path double arrow - grey primary</title><path marker-end="url(#h)" marker-start="url(#i)" stroke="#616161" stroke-linecap="round" stroke-linejoin="round" d="M165.9 508h117"/></g><g><text transform="translate(159.4 469)" fill="#757575"><tspan font-family="Roboto" font-size="10" font-weight="400" x="8.97" y="9">Latency to edge POP and </tspan> <tspan font-family="Roboto" font-size="10" font-weight="400" x="28.059" y="21">Google frontend</tspan></text></g><g><title>path double arrow - grey primary</title><path marker-end="url(#h)" marker-start="url(#i)" stroke="#616161" stroke-linecap="round" stroke-linejoin="round" d="M53.1 508h79"/></g><g><text transform="translate(72.1 475)" fill="#757575"><tspan font-family="Roboto" font-size="10" font-weight="400" x="0" y="9">Last mile</tspan></text></g><g><title>path double arrow - grey primary</title><path marker-end="url(#h)" marker-start="url(#i)" stroke="#616161" stroke-linecap="round" stroke-linejoin="round" d="M495.8 508h145.7"/></g><g><text transform="translate(490.797 475)" fill="#757575"><tspan font-family="Roboto" font-size="10" font-weight="400" x="35.565" y="9">Application latency</tspan></text></g><g><title>path solid</title><path stroke="#616161" stroke-linecap="round" stroke-linejoin="round" d="M281.5 282.5v20"/></g><g><title>path solid</title><path stroke="#616161" stroke-linecap="round" stroke-linejoin="round" d="M353 256h20"/></g><g><title>path double arrow - grey primary</title><path marker-end="url(#j)" marker-start="url(#k)" stroke="#616161" stroke-linecap="round" stroke-linejoin="round" d="M522.15 256h5.2"/></g><g><title>path double arrow - grey primary</title><path marker-end="url(#h)" marker-start="url(#i)" stroke="#616161" stroke-linecap="round" stroke-linejoin="round" d="M315.9 508h142.706"/></g></g></svg>