<svg xmlns="http://www.w3.org/2000/svg" viewBox="0 0 736 430" width="736pt" height="430pt"><defs><marker orient="auto" overflow="visible" id="a" viewBox="-1 -5 10 10" markerWidth="10" markerHeight="10" color="#616161"><path d="M8 0H0m4-4l4 4-4 4" fill="none" stroke="currentColor"/></marker></defs><g fill="none"><title>1_weighted dns_outlines</title><path fill="#fff" d="M0 0h736v430H0z"/><title>Layer 1</title><path fill="#fff" d="M299.5 173h137v54h-137z"/><path stroke="#dfdfdf" stroke-linecap="round" stroke-linejoin="round" d="M299.5 173h137v54h-137z"/><path d="M315.5 192.8v3.6h18v-3.6zm3.6 2.7h-1.8v-1.8h1.8zm-3.6 2.7v3.6h18v-3.6zm3.6 2.7h-1.8v-1.8h1.8zm-3.6 2.7v3.6h18v-3.6zm3.6 2.7h-1.8v-1.8h1.8z" fill="#797a7d"/><path fill="#ede7f7" d="M55 307h183v73.5H55z"/><path stroke="#fff" stroke-linecap="round" stroke-linejoin="round" stroke-width="2" d="M55 307h183v73.5H55z"/><path fill="#e2f3ec" d="M276.5 307h183v73.5h-183z"/><path stroke="#fff" stroke-linecap="round" stroke-linejoin="round" stroke-width="2" d="M276.5 307h183v73.5h-183z"/><path fill="#e1f6fe" d="M498 307h183v73.5H498z"/><path stroke="#fff" stroke-linecap="round" stroke-linejoin="round" stroke-width="2" d="M498 307h183v73.5H498z"/><path d="M368 132v31.1m0 63.9v69.6m0-45.85l103.875.384H589.5V296.6M368 250.75l-103.875.384H146.5V296.6" marker-end="url(#a)" stroke="#616161" stroke-linecap="round" stroke-linejoin="round"/><path fill="#fff" d="M111.5 268H605v18.5H111.5zM309 39h118v93H309z"/><path stroke="#dfdfdf" stroke-linecap="round" stroke-linejoin="round" d="M309 39h118v93H309z"/><path d="M363.18 69.581c-.287 0-.559.068-.802.185a13.683 13.683 0 0 1-1.737-2.418 8.74 8.74 0 0 1 2.442-2.252c1.015.408 1.969.936 2.846 1.565a1.845 1.845 0 0 0-.045 1.017 14.966 14.966 0 0 0-2.158 1.986 1.847 1.847 0 0 0-.546-.083zm-1.85 1.851c0 .42.14.807.377 1.118a14.744 14.744 0 0 0-1.532 4.4 8.655 8.655 0 0 1-1.225-4.45c0-1.405.335-2.73.926-3.905.472.75 1.01 1.454 1.604 2.106-.097.224-.15.471-.15.731zm6.353-6.036c-.343 0-.664.096-.94.26a14.911 14.911 0 0 0-2.153-1.3 8.676 8.676 0 0 1 3.06-.556c1.58 0 3.06.423 4.337 1.16a14.742 14.742 0 0 0-3.04.937c-.332-.31-.775-.5-1.264-.5zm2.768 8.719a13.458 13.458 0 0 1-5.504-2.128 1.852 1.852 0 0 0-.195-1.53 13.618 13.618 0 0 1 1.856-1.705 1.841 1.841 0 0 0 1.798.2 13.542 13.542 0 0 1 2.526 4.542 1.85 1.85 0 0 0-.48.62zm2.401 2.498a1.855 1.855 0 0 0 1.026-1.125 14.785 14.785 0 0 0 2.062-.346 8.715 8.715 0 0 1-3.165 4.386 15.004 15.004 0 0 0 .077-2.915zm-2.834-1.254a14.808 14.808 0 0 0-5.755 5.157 8.715 8.715 0 0 1-2.974-2.084c.152-1.86.682-3.615 1.512-5.188a1.84 1.84 0 0 0 1.345-.235 14.76 14.76 0 0 0 5.872 2.35zm3.472-9.307a8.677 8.677 0 0 1 2.774 7.666c-.786.23-1.602.39-2.44.476a1.851 1.851 0 0 0-1.672-1.13 14.836 14.836 0 0 0-2.808-5.003 1.842 1.842 0 0 0 .18-.999 13.447 13.447 0 0 1 3.966-1.01zm-2.541 10.296c.178.145.383.257.606.329a13.163 13.163 0 0 1-.234 3.71 8.713 8.713 0 0 1-5.785.553 13.515 13.515 0 0 1 5.413-4.592z" fill="#616161"/><path d="M559.73 331v-7.11h2.006c.619 0 1.166.137 1.64.41.476.274.843.663 1.102 1.168.259.504.39 1.084.393 1.738v.454c0 .67-.13 1.258-.388 1.763a2.73 2.73 0 0 1-1.108 1.162c-.48.27-1.04.409-1.678.415zm.937-6.338v5.571h.986c.723 0 1.285-.224 1.687-.673.402-.45.603-1.09.603-1.92v-.414c0-.808-.19-1.435-.568-1.883-.38-.447-.918-.674-1.614-.68zm7.671 6.436c-.716 0-1.299-.236-1.748-.706-.45-.47-.674-1.1-.674-1.887v-.166c0-.524.1-.992.3-1.404.2-.412.48-.734.84-.967.36-.233.75-.349 1.17-.349.686 0 1.22.226 1.601.679.381.452.571 1.1.571 1.943v.376h-3.579c.013.521.166.942.457 1.262.291.321.662.481 1.11.481.32 0 .59-.065.811-.195.222-.13.415-.303.581-.518l.552.43c-.443.68-1.107 1.02-1.992 1.02zm-.112-4.737c-.365 0-.671.133-.918.398-.248.266-.4.637-.46 1.116h2.647v-.068c-.026-.46-.15-.815-.371-1.067-.221-.253-.52-.379-.898-.379zm7.68 2.056c0 .804-.184 1.452-.551 1.943-.368.492-.866.738-1.495.738-.64 0-1.145-.204-1.513-.61v2.543h-.904v-7.314h.826l.043.586c.368-.456.88-.684 1.534-.684.635 0 1.137.24 1.506.718.37.478.554 1.144.554 1.997zm-.903-.103c0-.595-.127-1.066-.38-1.41-.255-.346-.603-.518-1.046-.518-.547 0-.957.242-1.23.727v2.525c.27.481.683.722 1.24.722a1.22 1.22 0 0 0 1.033-.515c.255-.343.383-.853.383-1.53zm2.129-4.814h.903v7.5h-.903zm2.109 4.81c0-.518.102-.983.305-1.397.204-.413.487-.732.85-.957a2.313 2.313 0 0 1 1.243-.337c.72 0 1.3.25 1.745.747.445.498.667 1.16.667 1.988v.063c0 .514-.099.976-.296 1.384a2.243 2.243 0 0 1-.844.955 2.34 2.34 0 0 1-1.263.342c-.716 0-1.296-.25-1.74-.747-.445-.498-.667-1.158-.667-1.978zm.908.107c0 .586.136 1.056.408 1.411.272.355.636.532 1.091.532.46 0 .824-.18 1.094-.54.27-.359.405-.863.405-1.51 0-.58-.137-1.05-.412-1.41a1.312 1.312 0 0 0-1.096-.539 1.3 1.3 0 0 0-1.08.533c-.273.354-.41.862-.41 1.523zm6.69 1.26l1.23-3.96h.967l-2.124 6.098c-.329.88-.851 1.319-1.567 1.319l-.171-.015-.337-.063v-.733l.244.02c.306 0 .544-.062.715-.186.171-.123.312-.35.423-.678l.2-.538-1.885-5.224h.986zm3.852-3.96l.025.586c.387-.456.91-.684 1.567-.684.74 0 1.242.283 1.509.85.176-.254.404-.46.686-.615.282-.157.614-.235.999-.235 1.158 0 1.748.614 1.767 1.841V331h-.903v-3.486c0-.378-.086-.66-.259-.848-.173-.187-.462-.28-.87-.28-.334 0-.613.1-.834.3-.221.2-.35.47-.386.808V331h-.908v-3.462c0-.768-.376-1.152-1.128-1.152-.592 0-.998.252-1.216.757V331h-.903v-5.283zm10.108 5.381c-.716 0-1.299-.236-1.748-.706-.45-.47-.674-1.1-.674-1.887v-.166c0-.524.1-.992.3-1.404.2-.412.48-.734.84-.967.36-.233.75-.349 1.17-.349.686 0 1.22.226 1.601.679.38.452.571 1.1.571 1.943v.376h-3.579c.013.521.166.942.457 1.262.291.321.661.481 1.11.481.32 0 .59-.065.811-.195.222-.13.415-.303.581-.518l.552.43c-.443.68-1.107 1.02-1.992 1.02zm-.112-4.737c-.365 0-.671.133-.918.398-.248.266-.4.637-.46 1.116h2.647v-.068c-.026-.46-.15-.815-.371-1.067-.221-.253-.52-.379-.899-.379zm4.072-.644l.03.664a1.925 1.925 0 0 1 1.581-.762c1.117 0 1.68.63 1.69 1.89V331h-.904v-3.496c-.003-.381-.09-.663-.261-.845-.17-.182-.437-.273-.798-.273-.293 0-.55.078-.772.234a1.592 1.592 0 0 0-.517.615V331h-.904v-5.283zm5.888-1.279v1.279h.987v.698h-.987v3.276c0 .212.044.37.132.477.088.105.238.158.45.158.104 0 .247-.02.43-.058V331a2.619 2.619 0 0 1-.694.098c-.404 0-.708-.122-.913-.367-.205-.244-.308-.59-.308-1.04v-3.276h-.962v-.698h.962v-1.28zm5.738 2.568h.678c.427-.007.762-.119 1.006-.337.245-.218.367-.513.367-.884 0-.833-.416-1.25-1.246-1.25-.39 0-.702.112-.935.335-.232.223-.349.518-.349.886h-.903c0-.563.206-1.031.618-1.404.411-.373.935-.559 1.57-.559.67 0 1.196.177 1.577.532.38.355.57.848.57 1.48 0 .309-.1.608-.3.898-.2.29-.472.506-.817.65.39.123.692.328.905.615.214.286.32.636.32 1.05 0 .638-.208 1.144-.625 1.518-.416.375-.958.562-1.626.562-.667 0-1.21-.181-1.628-.542-.418-.362-.628-.839-.628-1.431h.909c0 .374.122.674.366.898.244.225.571.337.981.337.436 0 .77-.114 1.001-.341.231-.228.347-.555.347-.982 0-.413-.127-.73-.38-.952-.255-.221-.621-.335-1.1-.342h-.678zm-31.136-46.158h-4.658v-.65l2.46-2.734c.365-.414.617-.75.755-1.008.138-.26.208-.527.208-.804 0-.37-.113-.675-.337-.913-.225-.237-.524-.356-.899-.356-.449 0-.798.128-1.047.383-.25.256-.374.611-.374 1.067h-.903c0-.654.21-1.183.632-1.587.422-.404.986-.605 1.692-.605.661 0 1.184.173 1.568.52.384.346.576.808.576 1.384 0 .7-.446 1.533-1.338 2.5l-1.904 2.065h3.569zm5.415-3.033c0 1.058-.18 1.844-.542 2.359-.361.514-.926.771-1.694.771-.759 0-1.32-.251-1.685-.754-.364-.503-.553-1.254-.566-2.253v-1.207c0-1.044.18-1.82.542-2.329.361-.507.927-.761 1.699-.761.765 0 1.328.245 1.69.734.36.49.546 1.246.556 2.269zm-.903-1.235c0-.765-.108-1.322-.322-1.672-.215-.35-.555-.525-1.021-.525-.462 0-.8.174-1.01.522-.212.349-.321.884-.328 1.607v1.445c0 .768.112 1.335.335 1.702.223.366.56.549 1.013.549.446 0 .777-.173.993-.518.217-.345.33-.888.34-1.63zm1.982-1.475c0-.426.136-.778.408-1.054.272-.277.62-.415 1.047-.415.433 0 .784.139 1.053.417.268.279.402.64.402 1.082v.346c0 .43-.136.78-.407 1.053-.272.272-.618.407-1.038.407-.423 0-.773-.135-1.05-.407-.277-.272-.415-.634-.415-1.087zm.674.376a.92.92 0 0 0 .215.628.726.726 0 0 0 .576.246c.231 0 .418-.08.56-.239.14-.16.212-.377.212-.654v-.357a.943.943 0 0 0-.21-.63.708.708 0 0 0-.572-.248.708.708 0 0 0-.571.249c-.14.166-.21.382-.21.649zm2.788 3.623c0-.426.136-.777.408-1.052.272-.275.62-.412 1.047-.412.427 0 .777.136 1.05.41.273.273.41.636.41 1.089v.346c0 .427-.136.778-.408 1.053-.271.275-.619.412-1.042.412-.423 0-.773-.136-1.05-.408-.277-.271-.415-.633-.415-1.086zm.674.381c0 .257.072.468.215.633a.726.726 0 0 0 .576.246c.234 0 .422-.08.561-.241.14-.162.21-.38.21-.657v-.362c0-.257-.07-.467-.212-.63a.716.716 0 0 0-.569-.244.724.724 0 0 0-.564.242c-.145.161-.217.379-.217.652zm-2.466.826l-.513-.323 3.472-5.556.513.322zM338.23 331v-7.11h2.006c.619 0 1.166.137 1.641.41a2.78 2.78 0 0 1 1.101 1.168c.259.504.39 1.084.393 1.738v.454c0 .67-.13 1.258-.388 1.763a2.73 2.73 0 0 1-1.108 1.162c-.48.27-1.04.409-1.678.415zm.937-6.338v5.571h.986c.723 0 1.285-.224 1.687-.673.402-.45.603-1.09.603-1.92v-.414c0-.808-.19-1.435-.568-1.883-.38-.447-.918-.674-1.614-.68zm7.671 6.436c-.716 0-1.299-.236-1.748-.706-.45-.47-.674-1.1-.674-1.887v-.166c0-.524.1-.992.3-1.404.2-.412.48-.734.84-.967.36-.233.75-.349 1.17-.349.686 0 1.22.226 1.601.679.381.452.571 1.1.571 1.943v.376h-3.579c.013.521.166.942.457 1.262.291.321.661.481 1.11.481.32 0 .59-.065.811-.195.222-.13.415-.303.581-.518l.552.43c-.443.68-1.107 1.02-1.992 1.02zm-.112-4.737c-.365 0-.671.133-.918.398-.248.266-.4.637-.46 1.116h2.647v-.068c-.026-.46-.15-.815-.371-1.067-.221-.253-.52-.379-.898-.379zm7.68 2.056c0 .804-.184 1.452-.552 1.943-.367.492-.865.738-1.494.738-.64 0-1.146-.204-1.513-.61v2.543h-.904v-7.314h.826l.043.586c.368-.456.88-.684 1.534-.684.634 0 1.137.24 1.506.718.37.478.554 1.144.554 1.997zm-.903-.103c0-.595-.127-1.066-.38-1.41-.255-.346-.603-.518-1.046-.518-.547 0-.957.242-1.23.727v2.525c.27.481.683.722 1.24.722a1.22 1.22 0 0 0 1.033-.515c.255-.343.383-.853.383-1.53zm2.129-4.814h.903v7.5h-.903zm2.109 4.81c0-.518.102-.983.305-1.397.204-.413.487-.732.85-.957a2.313 2.313 0 0 1 1.243-.337c.72 0 1.3.25 1.745.747.445.498.667 1.16.667 1.988v.063c0 .514-.099.976-.296 1.384a2.243 2.243 0 0 1-.844.955 2.34 2.34 0 0 1-1.263.342c-.716 0-1.296-.25-1.74-.747-.445-.498-.667-1.158-.667-1.978zm.908.107c0 .586.136 1.056.408 1.411.272.355.636.532 1.091.532.46 0 .824-.18 1.094-.54.27-.359.405-.863.405-1.51 0-.58-.137-1.05-.412-1.41a1.312 1.312 0 0 0-1.096-.539 1.3 1.3 0 0 0-1.08.533c-.273.354-.41.862-.41 1.523zm6.69 1.26l1.23-3.96h.967l-2.124 6.098c-.329.88-.851 1.319-1.567 1.319l-.171-.015-.337-.063v-.733l.244.02c.306 0 .544-.062.715-.186.171-.123.312-.35.423-.678l.2-.538-1.885-5.224h.987zm3.852-3.96l.025.586c.387-.456.91-.684 1.567-.684.74 0 1.242.283 1.509.85.176-.254.404-.46.686-.615.282-.157.614-.235.999-.235 1.158 0 1.748.614 1.767 1.841V331h-.903v-3.486c0-.378-.086-.66-.259-.848-.173-.187-.462-.28-.87-.28-.334 0-.613.1-.834.3-.221.2-.35.47-.386.808V331h-.908v-3.462c0-.768-.376-1.152-1.128-1.152-.592 0-.998.252-1.216.757V331h-.903v-5.283zm10.108 5.381c-.716 0-1.299-.236-1.748-.706-.45-.47-.674-1.1-.674-1.887v-.166c0-.524.1-.992.3-1.404.2-.412.48-.734.84-.967.36-.233.75-.349 1.17-.349.686 0 1.22.226 1.601.679.38.452.571 1.1.571 1.943v.376h-3.579c.013.521.165.942.457 1.262.291.321.661.481 1.11.481.32 0 .59-.065.811-.195.222-.13.415-.303.581-.518l.552.43c-.443.68-1.107 1.02-1.992 1.02zm-.112-4.737c-.365 0-.671.133-.918.398-.248.266-.4.637-.46 1.116h2.647v-.068c-.026-.46-.15-.815-.371-1.067-.221-.253-.52-.379-.898-.379zm4.072-.644l.03.664a1.925 1.925 0 0 1 1.581-.762c1.117 0 1.68.63 1.69 1.89V331h-.904v-3.496c-.003-.381-.09-.663-.261-.845-.17-.182-.437-.273-.798-.273-.293 0-.55.078-.772.234a1.592 1.592 0 0 0-.517.615V331h-.904v-5.283zm5.888-1.279v1.279h.987v.698h-.987v3.276c0 .212.044.37.132.477.088.105.238.158.45.158.104 0 .247-.02.43-.058V331a2.619 2.619 0 0 1-.694.098c-.404 0-.708-.122-.913-.367-.205-.244-.308-.59-.308-1.04v-3.276h-.962v-.698h.962v-1.28zM398.23 331h-4.659v-.65l2.461-2.734c.365-.413.616-.75.755-1.008.138-.259.207-.527.207-.803 0-.371-.112-.676-.337-.913-.224-.238-.524-.357-.898-.357-.45 0-.799.128-1.048.383-.249.256-.373.612-.373 1.067h-.903c0-.654.21-1.183.632-1.587.421-.403.985-.605 1.692-.605.66 0 1.183.173 1.567.52.384.347.576.808.576 1.384 0 .7-.446 1.533-1.338 2.5l-1.904 2.066h3.57zm-35.094-57.267v.767h-.166c-.703.013-1.263.221-1.68.625-.417.404-.658.972-.723 1.704.375-.43.886-.644 1.534-.644.618 0 1.112.218 1.481.654.37.436.555 1 .555 1.69 0 .732-.2 1.318-.598 1.757-.4.44-.934.66-1.604.66-.68 0-1.233-.262-1.656-.784-.423-.523-.634-1.196-.634-2.02v-.346c0-1.309.279-2.309.837-3 .558-.692 1.39-1.046 2.493-1.063zm-1.187 3.204c-.309 0-.594.092-.854.278a1.45 1.45 0 0 0-.542.698v.332c0 .586.132 1.058.395 1.416.264.358.593.537.987.537.406 0 .726-.15.959-.449.233-.3.35-.692.35-1.177 0-.488-.119-.883-.355-1.184a1.135 1.135 0 0 0-.94-.451zm7.715.878c0 1.058-.18 1.844-.542 2.359-.361.514-.926.771-1.694.771-.759 0-1.32-.251-1.685-.754-.364-.503-.553-1.254-.566-2.253v-1.207c0-1.044.18-1.82.542-2.329.361-.507.928-.761 1.699-.761.765 0 1.328.245 1.69.734.36.49.546 1.246.556 2.269zm-.903-1.235c0-.765-.108-1.322-.323-1.672-.214-.35-.555-.525-1.02-.525-.462 0-.8.174-1.01.522-.212.349-.321.884-.328 1.607v1.445c0 .768.112 1.335.335 1.702.223.366.56.549 1.013.549.446 0 .777-.173.993-.518.217-.345.33-.888.34-1.63zm1.982-1.475c0-.426.136-.778.408-1.054.272-.277.62-.415 1.047-.415.433 0 .784.139 1.053.417.268.279.402.64.402 1.082v.346c0 .43-.136.78-.407 1.053-.272.272-.618.407-1.038.407-.423 0-.773-.135-1.05-.407-.276-.272-.415-.634-.415-1.087zm.674.376a.92.92 0 0 0 .215.628.726.726 0 0 0 .576.246c.231 0 .417-.08.56-.239.14-.16.212-.377.212-.654v-.357a.943.943 0 0 0-.21-.63.708.708 0 0 0-.572-.248.708.708 0 0 0-.571.249c-.14.166-.21.382-.21.649zm2.788 3.623c0-.426.136-.777.408-1.052.272-.275.62-.412 1.047-.412.427 0 .776.136 1.05.41.273.273.41.636.41 1.089v.346c0 .427-.136.778-.408 1.053-.271.275-.619.412-1.042.412-.423 0-.773-.136-1.05-.408-.277-.271-.415-.633-.415-1.086zm.674.381c0 .257.071.468.215.633a.726.726 0 0 0 .576.246c.234 0 .421-.08.561-.241.14-.162.21-.38.21-.657v-.362c0-.257-.07-.467-.212-.63a.716.716 0 0 0-.569-.244.724.724 0 0 0-.564.242c-.145.161-.217.379-.217.652zm-2.466.826l-.513-.323 3.472-5.556.513.322z" fill="#757575"/><path d="M343.33 201.31l.164 1.126.24-1.014 1.688-5.953h.95l1.646 5.953.234 1.031.182-1.148 1.324-5.836h1.13L348.82 204h-1.025l-1.758-6.217-.135-.65-.134.65-1.823 6.217h-1.025l-2.063-8.531h1.125zm11.086 2.807c-.86 0-1.559-.282-2.098-.846-.539-.565-.808-1.32-.808-2.265v-.2c0-.628.12-1.19.36-1.684s.576-.88 1.008-1.16c.432-.28.9-.419 1.403-.419.824 0 1.465.271 1.922.814.457.543.686 1.32.686 2.332v.452h-4.295c.015.625.198 1.13.548 1.514.35.385.794.577 1.333.577.382 0 .707-.078.972-.234.266-.156.498-.363.698-.621l.662.516c-.532.816-1.329 1.224-2.391 1.224zm-.135-5.683c-.437 0-.804.159-1.101.477-.297.319-.48.765-.551 1.339h3.176v-.082c-.032-.55-.18-.978-.446-1.28-.265-.303-.625-.454-1.078-.454zM359.32 204h-1.084v-6.34h1.084zm-1.172-8.021c0-.176.054-.325.162-.446.107-.12.266-.181.477-.181.211 0 .371.06.48.181a.64.64 0 0 1 .165.446.62.62 0 0 1-.164.439c-.11.117-.27.176-.48.176-.212 0-.371-.059-.478-.176a.626.626 0 0 1-.162-.44zm2.649 4.798c0-.988.228-1.774.685-2.358.457-.584 1.063-.876 1.817-.876.773 0 1.377.273 1.81.82l.053-.703h.99v6.188c0 .82-.243 1.466-.73 1.94-.486.472-1.139.708-1.96.708a3.26 3.26 0 0 1-1.34-.293c-.438-.195-.772-.463-1.003-.803l.563-.65c.464.574 1.033.861 1.705.861.527 0 .938-.148 1.233-.445.295-.297.442-.715.442-1.254v-.545c-.433.5-1.025.75-1.775.75-.742 0-1.343-.299-1.802-.896-.459-.598-.688-1.412-.688-2.444zm1.09.123c0 .715.146 1.277.44 1.685.292.408.702.612 1.23.612.683 0 1.185-.31 1.505-.931v-2.895c-.332-.605-.83-.908-1.494-.908-.527 0-.94.205-1.236.615-.297.41-.445 1.018-.445 1.822zm6.984-2.472c.48-.59 1.106-.885 1.875-.885 1.34 0 2.016.756 2.027 2.268V204h-1.084v-4.195c-.003-.457-.108-.795-.313-1.014-.205-.219-.524-.328-.958-.328-.352 0-.66.094-.926.281a1.91 1.91 0 0 0-.62.738V204h-1.085v-9h1.084zm6.996-2.303v1.535h1.184v.838h-1.184v3.932c0 .254.053.444.158.571.106.127.286.19.54.19.124 0 .296-.023.515-.07V204a3.143 3.143 0 0 1-.832.117c-.484 0-.85-.146-1.096-.44-.246-.292-.369-.708-.369-1.247v-3.932h-1.154v-.838h1.154v-1.535zm5.08 7.992c-.86 0-1.558-.282-2.097-.846-.54-.565-.809-1.32-.809-2.265v-.2c0-.628.12-1.19.36-1.684a2.81 2.81 0 0 1 1.008-1.16c.432-.28.9-.419 1.404-.419.824 0 1.464.271 1.921.814.457.543.686 1.32.686 2.332v.452h-4.295c.016.625.198 1.13.548 1.514.35.385.794.577 1.333.577.383 0 .707-.078.973-.234.265-.156.498-.363.697-.621l.662.516c-.531.816-1.328 1.224-2.39 1.224zm-.135-5.683c-.437 0-.804.159-1.101.477-.297.319-.48.765-.55 1.339h3.175v-.082c-.031-.55-.18-.978-.445-1.28-.266-.303-.625-.454-1.079-.454zm3.598 2.343c0-.972.23-1.755.692-2.346.46-.592 1.064-.888 1.81-.888.742 0 1.33.254 1.764.762V195h1.084v9h-.996l-.053-.68c-.434.532-1.037.797-1.81.797-.735 0-1.334-.3-1.797-.902-.462-.602-.694-1.387-.694-2.356zm1.084.123c0 .72.149 1.282.445 1.688.297.406.707.61 1.23.61.688 0 1.19-.31 1.507-.927v-2.912c-.324-.597-.822-.896-1.494-.896-.532 0-.946.205-1.243.615-.296.41-.445 1.018-.445 1.822zm9.088 3.1v-8.531h2.408c.742 0 1.399.164 1.969.492.57.328 1.01.795 1.321 1.4.31.606.468 1.301.472 2.086v.545c0 .805-.155 1.51-.466 2.115a3.276 3.276 0 0 1-1.33 1.395c-.576.324-1.247.49-2.013.498zm1.125-7.605v6.685h1.184c.867 0 1.542-.27 2.024-.809s.724-1.306.724-2.302v-.498c0-.97-.228-1.722-.683-2.26-.455-.536-1.1-.809-1.936-.816zM409.008 204h-1.131l-4.295-6.574V204h-1.13v-8.531h1.13l4.307 6.603v-6.603h1.119zm4.512-3.803c-.965-.277-1.667-.618-2.107-1.022a1.954 1.954 0 0 1-.66-1.497c0-.672.27-1.228.807-1.667.537-.44 1.235-.66 2.094-.66.586 0 1.109.114 1.568.34.459.227.814.54 1.066.938.252.398.378.834.378 1.307h-1.13c0-.516-.165-.921-.493-1.216-.328-.295-.791-.443-1.389-.443-.554 0-.987.122-1.298.367-.31.244-.465.583-.465 1.016 0 .348.147.642.442.882.295.24.797.46 1.506.66.709.198 1.264.418 1.664.658.4.24.697.52.89.841.194.32.29.697.29 1.131 0 .691-.269 1.245-.808 1.661-.54.416-1.26.624-2.162.624a4.01 4.01 0 0 1-1.64-.337c-.509-.224-.9-.532-1.176-.923a2.252 2.252 0 0 1-.413-1.33h1.131c0 .516.19.923.572 1.222.38.299.89.448 1.526.448.594 0 1.049-.12 1.365-.363.317-.242.475-.572.475-.99 0-.418-.147-.741-.44-.97-.293-.228-.824-.454-1.593-.677zM348.512 97.469h1.125V106h-1.125zm4.037 2.191l.035.797c.484-.61 1.117-.914 1.898-.914 1.34 0 2.016.756 2.028 2.268V106h-1.084v-4.195c-.004-.457-.109-.795-.314-1.014-.205-.219-.524-.328-.958-.328-.351 0-.66.094-.925.281a1.91 1.91 0 0 0-.622.738V106h-1.084v-6.34zm7.066-1.535v1.535h1.184v.838h-1.184v3.932c0 .254.053.444.158.571.106.127.286.19.54.19.125 0 .296-.023.515-.07V106a3.142 3.142 0 0 1-.832.117c-.484 0-.85-.146-1.096-.44-.246-.292-.369-.708-.369-1.247v-3.932h-1.154v-.838h1.154v-1.535zm5.08 7.992c-.86 0-1.558-.282-2.097-.846-.54-.565-.809-1.32-.809-2.265v-.2c0-.628.12-1.19.36-1.684s.577-.88 1.008-1.16c.432-.28.9-.419 1.404-.419.824 0 1.464.271 1.921.814.457.543.686 1.32.686 2.332v.452h-4.295c.016.625.198 1.13.548 1.514.35.385.794.577 1.333.577.383 0 .707-.078.973-.234.265-.156.498-.363.697-.621l.662.516c-.531.816-1.328 1.224-2.39 1.224zm-.134-5.683c-.438 0-.805.159-1.102.477-.297.318-.48.765-.55 1.339h3.175v-.082c-.031-.55-.18-.978-.445-1.28-.266-.303-.625-.454-1.078-.454zm6.925.199a3.249 3.249 0 0 0-.533-.041c-.71 0-1.193.303-1.447.908v4.5h-1.084v-6.34h1.055l.017.733c.356-.567.86-.85 1.512-.85.21 0 .371.027.48.082zm2.022-.973l.035.797c.484-.61 1.117-.914 1.898-.914 1.34 0 2.016.756 2.028 2.268V106h-1.084v-4.195c-.004-.457-.109-.795-.314-1.014-.205-.219-.524-.328-.958-.328-.351 0-.66.094-.925.281a1.91 1.91 0 0 0-.622.738V106h-1.084v-6.34zm8.226 6.457c-.859 0-1.558-.282-2.097-.846-.54-.565-.809-1.32-.809-2.265v-.2c0-.628.12-1.19.36-1.684a2.81 2.81 0 0 1 1.008-1.16c.432-.28.9-.419 1.404-.419.824 0 1.464.271 1.921.814.457.543.686 1.32.686 2.332v.452h-4.295c.016.625.198 1.13.548 1.514.35.385.794.577 1.333.577.383 0 .707-.078.973-.234.265-.156.498-.363.697-.621l.662.516c-.531.816-1.328 1.224-2.39 1.224zm-.134-5.683c-.438 0-.805.159-1.102.477-.297.318-.48.765-.55 1.339h3.175v-.082c-.031-.55-.18-.978-.445-1.28-.266-.303-.625-.454-1.078-.454zm5.332-2.309v1.535h1.183v.838h-1.183v3.932c0 .254.052.444.158.571.105.127.285.19.539.19.125 0 .297-.023.516-.07V106a3.142 3.142 0 0 1-.832.117c-.485 0-.85-.146-1.096-.44-.246-.292-.37-.708-.37-1.247v-3.932h-1.154v-.838h1.155v-1.535z" fill="#212121"/><path d="M116.73 331v-7.11h2.006c.619 0 1.166.137 1.64.41.476.274.843.663 1.102 1.168.259.504.39 1.084.393 1.738v.454c0 .67-.13 1.258-.388 1.763a2.73 2.73 0 0 1-1.108 1.162c-.48.27-1.04.409-1.678.415zm.937-6.338v5.571h.986c.723 0 1.285-.224 1.687-.673.402-.45.603-1.09.603-1.92v-.414c0-.808-.19-1.435-.568-1.883-.38-.447-.918-.674-1.614-.68zm7.671 6.436c-.716 0-1.299-.236-1.748-.706-.45-.47-.674-1.1-.674-1.887v-.166c0-.524.1-.992.3-1.404.2-.412.48-.734.84-.967.36-.233.75-.349 1.17-.349.686 0 1.22.226 1.601.679.381.452.571 1.1.571 1.943v.376h-3.579c.013.521.166.942.457 1.262.291.321.662.481 1.11.481.32 0 .59-.065.811-.195.222-.13.415-.303.581-.518l.552.43c-.443.68-1.107 1.02-1.992 1.02zm-.112-4.737c-.365 0-.671.133-.918.398-.248.266-.4.637-.46 1.116h2.647v-.068c-.026-.46-.15-.815-.371-1.067-.221-.253-.52-.379-.898-.379zm7.68 2.056c0 .804-.184 1.452-.552 1.943-.367.492-.865.738-1.494.738-.64 0-1.145-.204-1.513-.61v2.543h-.904v-7.314h.826l.043.586c.368-.456.88-.684 1.534-.684.634 0 1.137.24 1.506.718.37.478.554 1.144.554 1.997zm-.903-.103c0-.595-.127-1.066-.38-1.41-.255-.346-.603-.518-1.046-.518-.547 0-.957.242-1.23.727v2.525c.27.481.683.722 1.24.722a1.22 1.22 0 0 0 1.033-.515c.255-.343.383-.853.383-1.53zm2.129-4.814h.903v7.5h-.903zm2.109 4.81c0-.518.102-.983.305-1.397.204-.413.487-.732.85-.957a2.313 2.313 0 0 1 1.243-.337c.72 0 1.3.25 1.745.747.445.498.667 1.16.667 1.988v.063c0 .514-.099.976-.296 1.384a2.243 2.243 0 0 1-.844.955 2.34 2.34 0 0 1-1.263.342c-.716 0-1.296-.25-1.74-.747-.445-.498-.667-1.158-.667-1.978zm.908.107c0 .586.136 1.056.408 1.411.272.355.636.532 1.091.532.46 0 .824-.18 1.094-.54.27-.359.405-.863.405-1.51 0-.58-.137-1.05-.412-1.41a1.312 1.312 0 0 0-1.096-.539 1.3 1.3 0 0 0-1.08.533c-.273.354-.41.862-.41 1.523zm6.69 1.26l1.23-3.96h.967l-2.124 6.098c-.329.88-.851 1.319-1.567 1.319l-.171-.015-.337-.063v-.733l.244.02c.306 0 .544-.062.715-.186.171-.123.312-.35.423-.678l.2-.538-1.885-5.224h.987zm3.852-3.96l.025.586c.387-.456.91-.684 1.567-.684.74 0 1.242.283 1.509.85.176-.254.404-.46.686-.615.282-.157.614-.235.999-.235 1.158 0 1.748.614 1.767 1.841V331h-.903v-3.486c0-.378-.086-.66-.259-.848-.172-.187-.462-.28-.87-.28-.334 0-.613.1-.834.3-.221.2-.35.47-.386.808V331h-.908v-3.462c0-.768-.376-1.152-1.128-1.152-.592 0-.998.252-1.216.757V331h-.903v-5.283zm10.108 5.381c-.716 0-1.299-.236-1.748-.706-.45-.47-.674-1.1-.674-1.887v-.166c0-.524.1-.992.3-1.404.2-.412.48-.734.84-.967.36-.233.75-.349 1.17-.349.686 0 1.22.226 1.601.679.38.452.571 1.1.571 1.943v.376h-3.579c.013.521.165.942.457 1.262.291.321.661.481 1.11.481.32 0 .59-.065.811-.195.222-.13.415-.303.581-.518l.552.43c-.443.68-1.107 1.02-1.992 1.02zm-.112-4.737c-.365 0-.671.133-.918.398-.248.266-.4.637-.46 1.116h2.647v-.068c-.026-.46-.15-.815-.371-1.067-.221-.253-.52-.379-.898-.379zm4.072-.644l.03.664a1.925 1.925 0 0 1 1.581-.762c1.117 0 1.68.63 1.69 1.89V331h-.904v-3.496c-.003-.381-.09-.663-.261-.845-.17-.182-.437-.273-.798-.273-.293 0-.55.078-.772.234a1.592 1.592 0 0 0-.517.615V331h-.904v-5.283zm5.888-1.279v1.279h.987v.698h-.987v3.276c0 .212.044.37.132.477.088.105.238.158.45.158.104 0 .247-.02.43-.058V331a2.619 2.619 0 0 1-.694.098c-.404 0-.708-.122-.913-.367-.205-.244-.308-.59-.308-1.04v-3.276h-.962v-.698h.962v-1.28zM175.04 331h-.908v-6.02l-1.821.668v-.82l2.587-.972h.142zm-32.791-50.793h-4.658v-.65l2.46-2.734c.365-.413.617-.75.755-1.008.138-.26.208-.527.208-.804 0-.37-.113-.675-.337-.913-.225-.237-.524-.356-.899-.356-.449 0-.798.128-1.047.383-.25.256-.374.611-.374 1.067h-.903c0-.654.21-1.183.632-1.587.422-.403.986-.605 1.692-.605.661 0 1.184.173 1.568.52.384.346.576.808.576 1.384 0 .7-.446 1.533-1.338 2.5l-1.904 2.065h3.569zm5.415-3.032c0 1.058-.18 1.844-.542 2.358-.361.514-.926.771-1.694.771-.759 0-1.32-.251-1.685-.754-.364-.503-.553-1.254-.566-2.253v-1.206c0-1.045.18-1.822.542-2.33.361-.507.927-.761 1.699-.761.765 0 1.328.245 1.69.735.36.49.546 1.246.556 2.268zm-.903-1.236c0-.765-.108-1.322-.323-1.672-.214-.35-.555-.525-1.02-.525-.462 0-.8.174-1.01.522-.212.349-.321.884-.328 1.607v1.445c0 .768.112 1.336.335 1.702.223.366.56.55 1.013.55.446 0 .777-.173.993-.518.217-.346.33-.89.34-1.631zm1.982-1.474c0-.427.136-.778.408-1.055.272-.277.62-.415 1.047-.415.433 0 .784.139 1.052.417.269.279.403.64.403 1.082v.347c0 .43-.136.78-.407 1.052-.272.272-.618.408-1.038.408-.423 0-.773-.136-1.05-.408-.276-.272-.415-.634-.415-1.087zm.674.376a.92.92 0 0 0 .215.627.726.726 0 0 0 .576.247c.231 0 .417-.08.56-.24.14-.16.212-.377.212-.654v-.356a.944.944 0 0 0-.21-.63.708.708 0 0 0-.572-.25.708.708 0 0 0-.571.25c-.14.166-.21.382-.21.65zm2.788 3.623c0-.427.136-.778.408-1.053.272-.275.62-.412 1.047-.412.427 0 .777.136 1.05.41.273.273.41.636.41 1.089v.346c0 .427-.136.778-.408 1.053-.271.275-.619.412-1.042.412-.423 0-.773-.136-1.05-.407-.277-.272-.415-.634-.415-1.087zm.674.38a.93.93 0 0 0 .215.633.726.726 0 0 0 .576.246c.234 0 .421-.08.561-.241.14-.161.21-.38.21-.657v-.361c0-.258-.07-.467-.212-.63a.716.716 0 0 0-.569-.244.723.723 0 0 0-.564.241c-.145.161-.217.379-.217.652zm-2.466.826l-.513-.323 3.472-5.556.513.322z" fill="#757575"/></g></svg>